# xmcd
#
# Track frame offsets:
#	150
#	12196
#	29182
#	42778
#	61651
#	79774
#	96399
#	108375
#	125167
#	138399
#	157170
#	175123
#
# Disc length: 2554 seconds
#
# Revision: 1
# Processed by: cddbd v1.5.2PL0 Copyright (c) Steve Scherf et al.
# Submitted via: audiograbber 1.83.01
#
DISCID=a209f80c
DTITLE=Exile - CB20221
DYEAR=1900
DGENRE=karaoke
TTITLE0=Woke Up In Love w/vocal
TTITLE1=I Don't Want To Be A Memory w/vocal
TTITLE2=Give Me One More Chance w/vocal
TTITLE3=She's A Miracle w/vocal
TTITLE4=Nobody's Talking w/vocal
TTITLE5=Kiss You All Over w/vocal
TTITLE6=Woke Up In Love
TTITLE7=I Don't Want To Be A Memory
TTITLE8=Give Me One More Chance
TTITLE9=She's A Miracle
TTITLE10=Nobody's Talking
TTITLE11=Kiss You All Over
EXTD=
EXTT0=
EXTT1=
EXTT2=
EXTT3=
EXTT4=
EXTT5=
EXTT6=
EXTT7=
EXTT8=
EXTT9=
EXTT10=
EXTT11=
PLAYORDER=
